<svg xmlns="http://www.w3.org/2000/svg" width="50.351" height="74.7" viewBox="0 0 50.351 74.7">
  <g id="Group_121" data-name="Group 121" transform="translate(-1028.995 -322.797)">
    <path id="Path_47" data-name="Path 47" d="M-851.714,370.714h3.857l3.571,19.857-5.429,5.714-5.429-5.714Z" transform="translate(1904)" fill="#ec6393" opacity="0"/>
    <g id="employee" transform="translate(945.549 322.797)">
      <g id="Group_92" data-name="Group 92" transform="translate(83.447)">
        <path id="Path_27" data-name="Path 27" d="M132.7,60.525a1.094,1.094,0,0,0-1.094,1.094V71.907a.6.6,0,0,1-.6.6h-5.882V50.962a1.094,1.094,0,1,0-2.188,0V72.511H111.09l3.435-3.779A1.962,1.962,0,0,0,115,67.159c0-.011,0-.022-.005-.033L111.721,47.8l.881-1.327a2.482,2.482,0,0,0,1.567.679,1.916,1.916,0,0,0,1.715-1.061h0l3.45-6.916,7.86,3.044a7.582,7.582,0,0,1,4.414,6.892v7.4a1.094,1.094,0,0,0,2.188,0v-7.4a9.766,9.766,0,0,0-5.775-8.918L128,40.184l-13.082-5.066V32.05a10.253,10.253,0,0,0,3.88-6.744,4.737,4.737,0,0,0,2.782-1.135,4.646,4.646,0,0,0,.485-6.555V13.562a13.562,13.562,0,1,0-27.123,0v4.16a4.394,4.394,0,0,0-1.128,2.929,4.637,4.637,0,0,0,1.613,3.52A4.734,4.734,0,0,0,98.209,25.3a10.145,10.145,0,0,0,4.1,6.907v2.906L89.243,40.184l-.021.008a9.766,9.766,0,0,0-5.775,8.918v22.8A2.8,2.8,0,0,0,86.24,74.7H96.665a1.094,1.094,0,0,0,0-2.188H94.311V50.962a1.094,1.094,0,0,0-2.188,0V72.511H86.24a.6.6,0,0,1-.6-.6v-22.8a7.582,7.582,0,0,1,4.412-6.891L97.9,39.175l3.451,6.916a1.916,1.916,0,0,0,1.715,1.061,2.48,2.48,0,0,0,1.567-.679l.881,1.327-3.271,19.327c0,.011,0,.022-.005.033a1.962,1.962,0,0,0,.473,1.574l3.435,3.779h-4.376a1.094,1.094,0,1,0,0,2.188h29.233a2.8,2.8,0,0,0,2.793-2.793V61.619A1.1,1.1,0,0,0,132.7,60.525ZM117.285,38.381l-3.217,6.447L110.2,42.081l3.974-4.9ZM110.817,45.2l-.834,1.256h-2.729L106.42,45.2l2.2-1.562ZM104.5,35.471V33.423a11.1,11.1,0,0,0,4.138.784,10.273,10.273,0,0,0,4.093-.853V35.48l-4.112,5.075ZM121.006,20.65a2.452,2.452,0,0,1-.852,1.861,2.549,2.549,0,0,1-1.264.582V18.208A2.475,2.475,0,0,1,121.006,20.65ZM98.119,23.093A2.472,2.472,0,0,1,96,20.65a2.6,2.6,0,0,1,2.116-2.387Zm.059-7.059a5.41,5.41,0,0,0-1.046.236V13.562a11.373,11.373,0,1,1,22.746,0v2.632a4.865,4.865,0,0,0-.987-.191c0-1.056.009-.852-3.445-4.566a1.947,1.947,0,0,0-2.486-.3,21.1,21.1,0,0,1-12.754,3.433A1.946,1.946,0,0,0,98.177,16.034Zm2.13,7.921V16.768a23.384,23.384,0,0,0,13.676-3.689c1.584,1.7,2.442,2.593,2.719,2.932v7.943a8.2,8.2,0,0,1-16.4,0Zm2.862,20.874-3.217-6.447,3.107-1.2,3.974,4.906Zm1.255,22.533,3.167-18.713h2.053l3.167,18.713-4.194,4.614Z" transform="translate(-83.447)" fill="#0055b7"/>
      </g>
    </g>
  </g>
</svg>
