<svg xmlns="http://www.w3.org/2000/svg" width="145.393" height="184" viewBox="0 0 145.393 184">
  <g id="Group_169" data-name="Group 169" transform="translate(-883.304 -543)">
    <g id="like" transform="translate(883.304 576.999)">
      <g id="Group_38" data-name="Group 38" transform="translate(0 10.667)">
        <g id="Group_37" data-name="Group 37">
          <path id="Path_3" data-name="Path 3" d="M145.392,93.965a13.46,13.46,0,0,0-3.944-9.535,15.041,15.041,0,0,0,3.877-11.565c-.709-7.7-7.645-13.734-15.8-13.734H92.106C93.96,53.5,96.928,43.186,96.928,34.9c0-13.14-11.165-24.232-18.174-24.232a19.026,19.026,0,0,0-10.977,3.689,3.031,3.031,0,0,0-1.139,2.369V37.268l-17.453,37.8-.721.369V74.276a3.03,3.03,0,0,0-3.029-3.029H15.145A15.159,15.159,0,0,0,0,86.392v48.464A15.158,15.158,0,0,0,15.145,150H33.319a15.179,15.179,0,0,0,14.254-10.014,39.491,39.491,0,0,0,16.036,3.956h55.607a13.936,13.936,0,0,0,13.727-10.577,13.675,13.675,0,0,0-1.09-9.105,13.579,13.579,0,0,0,6.064-18.174A13.576,13.576,0,0,0,145.392,93.965Zm-12.776,7.475a3.029,3.029,0,0,0-1.732,5.216,7.505,7.505,0,0,1-4.319,12.958,3.029,3.029,0,0,0-1.732,5.216,7.491,7.491,0,0,1,2.193,7.227,7.838,7.838,0,0,1-7.809,5.828H63.609c-4.919,0-13.17-2.308-16.029-5.174a3.032,3.032,0,0,0-5.174,2.145,9.1,9.1,0,0,1-9.087,9.087H15.145a9.1,9.1,0,0,1-9.087-9.087V86.392A9.1,9.1,0,0,1,15.145,77.3H42.406v3.029a3.042,3.042,0,0,0,1.442,2.581,3.1,3.1,0,0,0,2.944.127l6.058-3.029a3.024,3.024,0,0,0,1.393-1.436L72.417,39.2a3.086,3.086,0,0,0,.279-1.272V18.367a12.774,12.774,0,0,1,6.058-1.642c3.32,0,12.116,8.251,12.116,18.174,0,10.662-5.8,26.031-5.858,26.183a3.024,3.024,0,0,0,2.829,4.107h41.685c5.052,0,9.341,3.617,9.765,8.233a9.05,9.05,0,0,1-4.313,8.572,3.033,3.033,0,0,0,.206,5.276,7.5,7.5,0,0,1-2.568,14.169Z" transform="translate(0 -10.667)" fill="#fff"/>
        </g>
      </g>
      <g id="Group_40" data-name="Group 40" transform="translate(42.406 77.305)">
        <g id="Group_39" data-name="Group 39">
          <path id="Path_4" data-name="Path 4" d="M152.362,245.333a3.03,3.03,0,0,0-3.029,3.029v54.522a3.029,3.029,0,1,0,6.058,0V248.362A3.03,3.03,0,0,0,152.362,245.333Z" transform="translate(-149.333 -245.333)" fill="#fff"/>
        </g>
      </g>
    </g>
    <rect id="Rectangle_334" data-name="Rectangle 334" width="9" height="25" rx="4.5" transform="translate(958 543)" fill="#fff"/>
    <rect id="Rectangle_335" data-name="Rectangle 335" width="9" height="25" rx="4.5" transform="matrix(0.719, 0.695, -0.695, 0.719, 990.946, 553.382)" fill="#fff"/>
    <rect id="Rectangle_336" data-name="Rectangle 336" width="9" height="25" rx="4.5" transform="matrix(0.719, -0.695, 0.695, 0.719, 927.579, 559.634)" fill="#fff"/>
  </g>
</svg>
