<svg xmlns="http://www.w3.org/2000/svg" width="66.252" height="74.7" viewBox="0 0 66.252 74.7">
  <g id="Group_118" data-name="Group 118" transform="translate(-824 -536)">
    <circle id="Ellipse_4" data-name="Ellipse 4" cx="4" cy="4" r="4" transform="translate(869 590)" fill="#ec6393" opacity="0"/>
    <g id="doctor" transform="translate(795.048 536)">
      <g id="Group_95" data-name="Group 95" transform="translate(28.952)">
        <path id="Path_32" data-name="Path 32" d="M95.157,70.875l-3.3-19.347a5.507,5.507,0,0,0-3.859-4.37L79.08,44.469a9.942,9.942,0,0,0-6.9-8.633c.282-.313.544-.625.784-.93a17.3,17.3,0,0,0,3.543-7.692H77.2a3.247,3.247,0,0,0,3.243-3.243V22.307a3.266,3.266,0,0,0-1.681-2.836v-4a1.094,1.094,0,1,0-2.188,0v4.488a6.743,6.743,0,0,0-1.454.421,1.1,1.1,0,0,0-.154.069c-.117.054-.235.11-.352.174V11.809a4.422,4.422,0,0,0-4.417-4.417H67.174a4.538,4.538,0,0,0-2.865,1.022l-.3.242a3.056,3.056,0,0,1-3.868,0l-.3-.242a4.539,4.539,0,0,0-2.865-1.022h-3.02a4.422,4.422,0,0,0-4.417,4.417v8.815c-.117-.064-.235-.12-.352-.174a1.1,1.1,0,0,0-.154-.069,6.745,6.745,0,0,0-1.454-.421V8.612A6.431,6.431,0,0,1,54.01,2.188H70.146A6.431,6.431,0,0,1,76.57,8.612v1.72a1.094,1.094,0,1,0,2.188,0V8.612A8.622,8.622,0,0,0,70.146,0H54.01A8.621,8.621,0,0,0,45.4,8.612V19.471a3.266,3.266,0,0,0-1.681,2.836V23.97a3.247,3.247,0,0,0,3.243,3.243h.688a17.3,17.3,0,0,0,3.543,7.692c.24.3.5.617.783.93a9.978,9.978,0,0,0-6.9,8.634l-8.914,2.689a5.507,5.507,0,0,0-3.859,4.37l-1.342,7.856a1.094,1.094,0,0,0,2.157.368L34.46,51.9A3.331,3.331,0,0,1,36.8,49.253l8.244-2.487V48.93a5.473,5.473,0,0,0-4.16,3.444,5.548,5.548,0,0,0-.325,1.486l-.8,10.227a2.78,2.78,0,0,0,2.772,3h1.364a1.094,1.094,0,1,0,0-2.188H42.53a.592.592,0,0,1-.591-.639l.8-10.227a3.359,3.359,0,0,1,.2-.9,3.308,3.308,0,0,1,3.1-2.108h.205a3.278,3.278,0,0,1,3.054,1.959,3.355,3.355,0,0,1,.256,1.05l.8,10.227a.592.592,0,0,1-.591.638H48.387a1.094,1.094,0,1,0,0,2.188h1.364a2.781,2.781,0,0,0,2.772-3l-.8-10.227a5.541,5.541,0,0,0-.423-1.734,5.415,5.415,0,0,0-4.076-3.2V46.106l3.76-1.135c.342.721,1.02,2.278,2.363,5.634C54.7,53.992,56.386,58.334,58,62.554a1.112,1.112,0,0,0,.04.1c1.077,2.817,2.121,5.577,3.015,7.957a1.094,1.094,0,0,0,2.048,0c.893-2.38,1.938-5.14,3.015-7.957a1.09,1.09,0,0,0,.04-.1C67.769,58.336,69.45,54,70.8,50.612c1.345-3.361,2.023-4.92,2.366-5.641l3.76,1.135v6.461a5.659,5.659,0,1,0,2.188,0V46.766l8.244,2.487A3.331,3.331,0,0,1,89.7,51.9L93,71.243a1.086,1.086,0,0,1-1.071,1.269h-59.7a1.086,1.086,0,0,1-1.071-1.269l1.091-6.385a1.094,1.094,0,0,0-2.157-.368L29,70.875A3.273,3.273,0,0,0,32.226,74.7h59.7a3.274,3.274,0,0,0,3.227-3.825ZM76.583,22.19a4.7,4.7,0,0,1,1.056-.143,1.118,1.118,0,0,0,.535-.127,1.036,1.036,0,0,1,.077.387V23.97A1.057,1.057,0,0,1,77.2,25.026h-.612V22.19ZM47.573,25.026H46.96A1.057,1.057,0,0,1,45.9,23.97V22.307a1.038,1.038,0,0,1,.077-.387,1.116,1.116,0,0,0,.535.127,4.877,4.877,0,0,1,1.056.143Zm2.188,1.227V23.378a1.535,1.535,0,0,0,1.974-1.471v-10.1A2.232,2.232,0,0,1,53.963,9.58h3.019a2.345,2.345,0,0,1,1.48.528l.3.242a5.244,5.244,0,0,0,6.638,0l.3-.242a2.345,2.345,0,0,1,1.48-.528h3.019a2.232,2.232,0,0,1,2.229,2.229v10.1A1.535,1.535,0,0,0,74.4,23.379v2.873c0,1.6-1.1,4.7-3.151,7.3a14.422,14.422,0,0,1-2.622,2.6,1.1,1.1,0,0,0-.1.074,10.663,10.663,0,0,1-12.9,0,1.11,1.11,0,0,0-.1-.073,14.433,14.433,0,0,1-2.622-2.6C50.865,30.951,49.76,27.849,49.76,26.252ZM69.245,43.926l-7.167,5.357-7.167-5.357a5.188,5.188,0,0,0,1.109-3.1V39.065a12.846,12.846,0,0,0,12.115,0v1.763A5.188,5.188,0,0,0,69.245,43.926ZM53.086,42.7a2.991,2.991,0,0,0-1.844-.093l-.079.021-3.779,1.14a7.771,7.771,0,0,1,6.449-6.129v3.184A2.893,2.893,0,0,1,53.086,42.7Zm2.969,8.781-.006-.015-.164-.415-.029-.074-.158-.4-.011-.028q-.243-.611-.469-1.173l-.033-.082-.128-.318-.046-.114-.121-.3-.035-.087-.213-.523-.056-.138-.08-.2-.085-.208-.032-.078-.025-.06q-.19-.46-.36-.868l0-.007-.177-.421-.087-.206L59.9,50.385l-2.575,1.094-.014.006-1.075.457Zm2.61,6.7q-.324-.841-.652-1.688-.512-1.322-.979-2.517l.408-.173,1.668,1.939ZM62.1,67.075a1.088,1.088,0,0,0-.112-.184c-.494-1.307-1.122-2.96-1.816-4.779l1.021-5.592h1.771l1.021,5.592C63.257,64.018,62.6,65.741,62.1,67.075Zm1.275-12.741H60.782l-1.226-1.425,2.522-1.071L64.6,52.908ZM66.143,56.5q-.327.845-.652,1.688l-.446-2.44,1.668-1.939.408.173Q66.654,55.176,66.143,56.5Zm4.19-10.512-.168.4-.022.054-.174.419-.012.029-.158.384-.03.072-.037.09-.073.177-.091.222-.03.073-.234.576-.037.093-.12.3-.048.118-.126.314-.036.09q-.223.554-.462,1.156l-.016.04-.157.395-.03.075-.165.417,0,.008-.182.461-1.076-.457-.011,0-2.577-1.095,6.163-4.607Zm2.66-3.351h0a2.99,2.99,0,0,0-1.92.073,2.892,2.892,0,0,1-.747-1.876V37.643a7.711,7.711,0,0,1,6.453,6.132Zm8.489,15.489A3.472,3.472,0,1,1,78.01,54.65,3.476,3.476,0,0,1,81.483,58.122Z" transform="translate(-28.952)" fill="#0055b7"/>
      </g>
    </g>
  </g>
</svg>
