<svg xmlns="http://www.w3.org/2000/svg" width="74.707" height="74.7" viewBox="0 0 74.707 74.7">
  <g id="Group_126" data-name="Group 126" transform="translate(-1212 -536)">
    <path id="Path_50" data-name="Path 50" d="M-666.857,609.571h24.714l-1.286-9.714L-648.143,598h-3.286l-.857,1.857h-4.429L-659.143,598l-4.714.857-3,4.429Z" transform="translate(1904)" fill="#ec6393" opacity="0"/>
    <g id="family_1_" data-name="family (1)" transform="translate(1212 535.976)">
      <g id="Group_117" data-name="Group 117" transform="translate(0 0.024)">
        <path id="Path_43" data-name="Path 43" d="M72.185,46.389a7.629,7.629,0,0,0-3.675-6.063c-1.685-1.032-3.049-1.192-9.5-2.8V37.19h6.44A2.857,2.857,0,0,0,68.3,34.372c.813-13.784.935-15.364.88-16.015a1.094,1.094,0,1,0-2.189,0V19.4c-.918,15.568-.88,14.878-.88,14.941a.674.674,0,0,1-.665.665h-6.44v-.283a12.453,12.453,0,0,0,4.867-4.466c2.1-3.394,1.81-6.263,1.814-9.041a2.053,2.053,0,0,0-1.977-2.061h0c-8.116-.31-12.28-4.91-13.363-6.313a1.824,1.824,0,0,0-2.807-.1,8.342,8.342,0,0,1-4.626,2.715,1.924,1.924,0,0,0-1.559,1.888c0,6.878-.008,6.5.01,6.983A12.194,12.194,0,0,0,48,34.7V35H41.465a.674.674,0,0,1-.665-.665c0-.064.037.6-.882-14.973,0-.02,0-.04-.005-.06-.013-.114-1.222-11.387,5.108-12.778a1.094,1.094,0,0,0,.738-.569c.026-.051,2.726-5.092,11.435-3.4,3.466.661,8.653,4.789,9.627,10.864a1.094,1.094,0,1,0,2.161-.347,15.681,15.681,0,0,0-4.02-8.22l-.078-.083A16.03,16.03,0,0,0,57.612.411c-2.936-.571-7.175-.787-10.7,1.431A9.565,9.565,0,0,0,44.09,4.5c-3.229.917-5.345,3.8-6.131,8.362a26.265,26.265,0,0,0-.224,6.656C38.76,35.35,38.409,34.757,39,35.772a10.144,10.144,0,0,0-8.674,2.656l-.957-.238L26.71,36.916V34.695a12.087,12.087,0,0,0,6.34-8.168,12.386,12.386,0,0,0,.294-2.669v-.011a4.128,4.128,0,0,0,3.445-3.862,3.6,3.6,0,0,0-.689-2.1,23.171,23.171,0,0,0-.517-6.841,14.889,14.889,0,0,0-2.965-5.676l-.011-.013A14.922,14.922,0,0,0,6.255,14.945c0,.961,0,2.82,0,2.936-1.627,2.28-.238,5.314,2.757,5.966A12.194,12.194,0,0,0,15.7,34.721v2.17l-2.771,1.326c-3.019.845-5.361,1.066-7.154,2.4A7.423,7.423,0,0,0,2.522,46.4C-.074,69.882-.014,68.456,0,69.5a4.986,4.986,0,0,0,5.143,5.222h9.567a1.094,1.094,0,0,0,0-2.189H10.6l1.085-20.525A1.094,1.094,0,1,0,9.5,51.894l-.228,4.317-5.582-.586.018-.163C4.836,46.542,4.431,45.19,5.937,43.4l.013-.015c1.833-2.165,4.74-2.213,6.991-2.915L16.3,44.776a2.173,2.173,0,0,0,3.255.193l.525-.529v5.3a1.094,1.094,0,0,0,2.189,0v-5.3l.525.529a2.173,2.173,0,0,0,1.542.642c.043,0,.086,0,.129,0a2.174,2.174,0,0,0,1.584-.831l1.538-1.968a13.916,13.916,0,0,0-.461,4.469c-2.1,1.965-1.028,5.19,1.935,5.847a8.392,8.392,0,0,0,4.289,5.98v1.331c-3.861,1.04-6.9,1.083-8.271,4.356a4.081,4.081,0,0,0-.14.393c-.056.177-.109.386-.137.524-.169.816-.175,1.332-.818,6.826H19.821a1.094,1.094,0,0,0,0,2.189H54.364a1.094,1.094,0,0,0,0-2.189H50.722c-.594-4.364-.538-6.239-1.033-7.584a5.674,5.674,0,0,0-4-3.437l-4.335-1.079v-1.35a8.4,8.4,0,0,0,4.254-5.961,3.811,3.811,0,0,0,2.975-2.861,3.146,3.146,0,0,0-.306-2.02A12.764,12.764,0,0,0,53.5,45.325c5.577,4.838,10.586,4.232,11-4.177.8.249,4.594.83,5.352,4.5.057.275.122.665.163,1l1,8.98-5.538.581-.228-4.31a1.094,1.094,0,0,0-2.186.115l1.085,20.525H59.471a1.094,1.094,0,1,0,0,2.189H69.56A5,5,0,0,0,73.22,73.3,5.405,5.405,0,0,0,74.7,69.5C74.718,68.576,74.793,69.875,72.185,46.389Zm-63.095,12L8.38,72.535H5.147a2.806,2.806,0,0,1-2.955-3.054c-.013-.775.028-.513,1.255-11.68Zm24.254-36.83V18.407A1.62,1.62,0,0,1,33.344,21.563Zm-24.332,0a1.62,1.62,0,0,1,0-3.156Zm.946-5.555a5.069,5.069,0,0,0-1.515.274,18.034,18.034,0,0,1,.226-3.737,12.98,12.98,0,0,1,4.052-7.122h0a12.519,12.519,0,0,1,3.17-2.068A12.672,12.672,0,0,1,29.634,5.424a12.96,12.96,0,0,1,3.836,6.183,16.312,16.312,0,0,1,.443,4.676,5.062,5.062,0,0,0-1.514-.274,3.058,3.058,0,0,1-.736-.6c-1.492-1.719-.226-3.05-1.827-4.386-1.128-.942-2.209-.582-4.206-.321-9.3,1-11.168-1.3-13.108.321a2.664,2.664,0,0,0-.957,2.025A3.167,3.167,0,0,1,9.958,16.008Zm1.243,7.85V17.815a5.2,5.2,0,0,0,1.983-2.237,6.288,6.288,0,0,0,.572-2.527.483.483,0,0,1,.564-.453c11.556,1.538,14.247-.943,14.282.453a5.954,5.954,0,0,0,1.436,3.828,5.781,5.781,0,0,0,1.118.937c0,1.138,0,4.944,0,5.064a10.216,10.216,0,0,1-5.4,9.847h0a10,10,0,0,1-3.915,1.085c-.579.038-1.149.013-1.135.013A9.979,9.979,0,0,1,11.2,23.858Zm6.818,19.557-2.947-3.772,1.482-.709,3.056,2.878Zm3.16-3.134-3.291-3.1V35.571a12.262,12.262,0,0,0,6.608-.008v1.594Zm3.16,3.134-1.592-1.6,3.074-2.894,1.479.708Zm4.608,7.346a1.144,1.144,0,0,1,0-2.122Zm17.3-20.077c-3.463-3.847-2.7-7.318-2.7-13.121a10.543,10.543,0,0,0,5.341-3.05A19.836,19.836,0,0,0,63.5,21.333c0,2.909.008,2.39-.01,2.977v0a9.9,9.9,0,0,1-3.576,7.213l-.126.1a10,10,0,0,1-11.672.62C47.9,32.1,46.5,30.92,46.248,30.683ZM42.318,62.93l.047.012c2.211.6,2.954.6,3.907,1.175,1.994,1.195,1.431,2.669,2.236,8.418H45.595l-.13-2.362a1.094,1.094,0,1,0-2.185.12l.123,2.242H31.336l.123-2.242a1.094,1.094,0,0,0-2.185-.12l-.13,2.362H26.2c.725-6.22.418-7.329,2.236-8.418.908-.545,1.5-.536,3.953-1.187a6.62,6.62,0,0,0,9.927,0Zm-6.777-3.014a8.416,8.416,0,0,0,1.4.183l.079,0,.078,0a8.217,8.217,0,0,0,2.073-.2c.054.421-.24,1.644.675,2.307a4.424,4.424,0,0,1-4.976,0C35.778,61.554,35.489,60.318,35.541,59.916Zm7.987-7.842c0,.08-.01.156-.016.229a6.2,6.2,0,0,1-12.325.222c-.093-.713-.033-1.283-.052-4.324,4.805.994,8.154-.936,9.62-2.85a5.867,5.867,0,0,0,2.785,2.306C43.537,52.342,43.546,51.749,43.528,52.074Zm1.828-5.849a1.757,1.757,0,0,0-.975-.592,3.986,3.986,0,0,1-2.195-2.147,1.6,1.6,0,0,0-2.868.052c-.64,1.346-3.561,3.687-8.5,2.335a1.466,1.466,0,0,0-1.388.337l-.109.017c0-.719.009-.746.008-.731a8.031,8.031,0,0,1,13.324-5.66c0,.006.013,0,.012.011a7.97,7.97,0,0,1,2.552,4.487A9.4,9.4,0,0,1,45.356,46.225Zm-1-7.79a9.366,9.366,0,0,0-1.6-1.245H48v.337Zm1.376,12.327V48.638a1.3,1.3,0,0,1,.721,1.062A1.333,1.333,0,0,1,45.728,50.762Zm1.817-4.607a10.432,10.432,0,0,0-.566-3.667,10.039,10.039,0,0,0,3.935,2.085A8.022,8.022,0,0,1,47.545,46.155ZM47.528,39.9l1.42-.353a1.106,1.106,0,0,0,.188-.065,2,2,0,0,0,1.051-1.876V35.558a12.185,12.185,0,0,0,6.634.012v2.035a2,2,0,0,0,1.051,1.876,1.1,1.1,0,0,0,.187.065l1.416.353A7.737,7.737,0,0,1,47.528,39.9Zm12.942,6.14c-1.268.529-3.267-.659-4.395-1.475a10.253,10.253,0,0,0,5.719-4.089l.534.133C62.236,43.658,61.586,45.575,60.469,46.04ZM71.662,71.761c-1.16,1.176-2.735.634-5.321.774l-.748-14.143L71.26,57.8l1.233,11.019A3.578,3.578,0,0,1,71.662,71.761Z" transform="translate(0 -0.024)" fill="#0055b7"/>
      </g>
    </g>
  </g>
</svg>
