<svg xmlns="http://www.w3.org/2000/svg" width="73.962" height="75" viewBox="0 0 73.962 75">
  <g id="Group_165" data-name="Group 165" transform="translate(-623 -680.7)">
    <g id="Group_127" data-name="Group 127" transform="translate(0 145)">
      <path id="Path_51" data-name="Path 51" d="M-1249,561h27.167l-1.167-7.833-5.833-6-7-1.167-6.333,1.167-4.833,4.667-2,4.167Z" transform="translate(1904)" fill="#ec6393" opacity="0"/>
      <g id="worker_1_" data-name="worker (1)" transform="translate(626 536)">
        <path id="Path_31" data-name="Path 31" d="M140.085,102.28l-11.033-2.157V97.382a11.592,11.592,0,0,0,5.141-8.516,3.142,3.142,0,0,0,2.878-3.134V83.48a2.991,2.991,0,0,0-.506-5.643v-.869A14.1,14.1,0,0,0,122.5,62.828h-1.179a14.1,14.1,0,0,0-14.061,14.14v.869a2.991,2.991,0,0,0-.506,5.643v2.25a3.142,3.142,0,0,0,2.878,3.134,11.572,11.572,0,0,0,3.862,7.527,14.323,14.323,0,0,0,1.279.989v2.741l-11.033,2.157c-5.821,1.138-10.358,4.438-10.358,10.527v11.138a4.45,4.45,0,0,0,4.437,4.462h48.182a4.45,4.45,0,0,0,4.437-4.462V112.807c0-6.069-4.509-9.383-10.358-10.527Zm-9.063.459c-.791,1.156-2,2.921-3.3,4.821a1.579,1.579,0,0,1-1.86.649l-1.72-1.037c1.678-1,4-2.707,4.7-4.859Zm-9.107,3.156c-1.654-.837-4.95-2.906-4.959-4.861V98.591a12.44,12.44,0,0,0,9.919,0v2.435c0,1.958-3.3,4.031-4.96,4.869ZM109.442,76.968a11.968,11.968,0,0,1,6.13-10.453v1.373a1.089,1.089,0,0,0,2.178,0V65.571a11.747,11.747,0,0,1,3.075-.542v5.414a1.089,1.089,0,0,0,2.178,0V65.029a11.751,11.751,0,0,1,3.076.542v2.317a1.089,1.089,0,0,0,2.178,0V66.515a11.968,11.968,0,0,1,6.13,10.453v.792H109.442Zm-1.505,2.982h27.955a.793.793,0,0,1,0,1.586H107.937a.793.793,0,0,1,0-1.586Zm3.808,7.807a1.092,1.092,0,0,0-1.089-1.072c-.181-.045-1.72.285-1.72-.954v-2h25.957v2c0,1.236-1.579.919-1.72.954a1.092,1.092,0,0,0-1.089,1.072,9.465,9.465,0,0,1-3.174,6.976,10.41,10.41,0,0,1-13.991,0,9.463,9.463,0,0,1-3.174-6.976Zm3.243,14.556c.7,2.152,3.026,3.863,4.7,4.859-1.724.928-1.6,1.206-2.385,1.113a1.716,1.716,0,0,1-1.2-.737c-1.3-1.9-2.507-3.655-3.3-4.808Zm-12.563,23.9h-4.6a2.266,2.266,0,0,1-2.259-2.272V112.807c0-3.282,1.482-5.55,4.734-7.117a45.265,45.265,0,0,1,2.127,13.638Zm18.4,0H104.6v-6.889a46.18,46.18,0,0,0-2.274-14.453c1.271-.425.327-.1,8.147-1.681,2.247,3.284,6.442,9.412,8.915,12.947a7.911,7.911,0,0,1,1.435,4.559Zm1.089-10.1a10.319,10.319,0,0,0-.742-1.239c-.836-1.194-1.921-2.761-3.053-4.4a3.253,3.253,0,0,0,.973-.39l2.823-1.7,2.823,1.7a3.247,3.247,0,0,0,.973.39c-1.132,1.642-2.217,3.209-3.053,4.4a10.248,10.248,0,0,0-.743,1.239Zm26.351,7.824a2.266,2.266,0,0,1-2.259,2.272h-4.6v-4.131a1.089,1.089,0,0,0-2.178,0v4.131H123V120.7a7.912,7.912,0,0,1,1.435-4.558c1.406-2.01,7.2-10.414,8.915-12.947,7.816,1.583,6.873,1.255,8.147,1.681a47.991,47.991,0,0,0-2.243,12.785,1.089,1.089,0,0,0,2.176.079,44.01,44.01,0,0,1,2.1-12.049c3.252,1.567,4.734,3.836,4.734,7.117Zm0,0" transform="translate(-79.48 -53.707)" fill="#0055b7"/>
      </g>
    </g>
    <g id="pharmacy" transform="translate(623 680.7)">
      <g id="Group_162" data-name="Group 162">
        <g id="Group_161" data-name="Group 161">
          <path id="Path_54" data-name="Path 54" d="M24.411,4.188A14.3,14.3,0,0,0,4.188,24.411,14.3,14.3,0,0,0,24.411,4.188ZM23.226,23.226A12.624,12.624,0,1,1,5.373,5.373,12.624,12.624,0,1,1,23.226,23.226Z" fill="#0055b7"/>
        </g>
      </g>
      <g id="Group_164" data-name="Group 164" transform="translate(5.833 5.833)">
        <g id="Group_163" data-name="Group 163">
          <path id="Path_55" data-name="Path 55" d="M116.424,109.356v-4.933h-7.067v4.933h-4.933v7.067h4.933v4.933h7.067v-4.933h4.933v-7.067Zm3.257,5.392h-4.933v4.933h-3.716v-4.933H106.1v-3.716h4.933V106.1h3.716v4.933h4.933Z" transform="translate(-104.423 -104.423)" fill="#0055b7"/>
        </g>
      </g>
    </g>
  </g>
</svg>
