<svg xmlns="http://www.w3.org/2000/svg" width="75" height="74.695" viewBox="0 0 75 74.695">
  <g id="Group_122" data-name="Group 122" transform="translate(-819.666 -323.777)">
    <path id="Path_48" data-name="Path 48" d="M-1060.429,372.571l4.857-2.286,9,6,9.143-6,4.143,2.286-13.286,24.286Z" transform="translate(1904)" fill="#ec6393" opacity="0"/>
    <g id="manager" transform="translate(819.666 322.737)">
      <g id="Group_53" data-name="Group 53" transform="translate(33.166 56.153)">
        <g id="Group_52" data-name="Group 52">
          <path id="Path_7" data-name="Path 7" d="M228.543,377.455a1.263,1.263,0,0,0-1.765.27l-.156.212a1.262,1.262,0,0,0,2.033,1.5l.158-.215A1.263,1.263,0,0,0,228.543,377.455Z" transform="translate(-226.377 -377.21)" fill="#0055b7"/>
        </g>
      </g>
      <g id="Group_55" data-name="Group 55" transform="translate(29.648 56.443)">
        <g id="Group_54" data-name="Group 54">
          <path id="Path_8" data-name="Path 8" d="M208.322,390.71l-3.247-5.9,3.031-4.129a1.262,1.262,0,1,0-2.035-1.494l-3.509,4.778a1.262,1.262,0,0,0-.089,1.356l3.635,6.609h0a1.262,1.262,0,1,0,2.212-1.217Z" transform="translate(-202.318 -378.668)" fill="#0055b7"/>
        </g>
      </g>
      <g id="Group_57" data-name="Group 57" transform="translate(39.213 56.462)">
        <g id="Group_56" data-name="Group 56">
          <path id="Path_9" data-name="Path 9" d="M273.485,384.078l-3.494-4.759a1.263,1.263,0,0,0-2.035,1.495l3.016,4.108-3.225,5.864A1.263,1.263,0,1,0,269.96,392l3.614-6.57A1.263,1.263,0,0,0,273.485,384.078Z" transform="translate(-267.591 -378.804)" fill="#0055b7"/>
        </g>
      </g>
      <g id="Group_59" data-name="Group 59" transform="translate(27.241 41.64)">
        <g id="Group_58" data-name="Group 58">
          <path id="Path_10" data-name="Path 10" d="M205.495,278.084a1.262,1.262,0,0,0-1.3.078,20.114,20.114,0,0,0-2.071,1.629c-3.4,3.071-6.625,2.656-6.752,2.638a1.234,1.234,0,0,0-.23-.015c-1.343.034-3.764-1.193-6.325-3.2-.392-.308-.793-.6-1.194-.871a1.262,1.262,0,0,0-1.969,1.046v4.331a1.263,1.263,0,0,0,.473.985,1.234,1.234,0,0,0,.11.079l8.952,5.982,0,0,.024.016a1.263,1.263,0,0,0,1.409-.009l.013-.008.015-.01,8.93-5.967c.036-.023.071-.047.1-.073a1.262,1.262,0,0,0,.485-1V279.2A1.262,1.262,0,0,0,205.495,278.084Zm-1.85,4.956-7.735,5.168-7.735-5.169v-1.148c1.883,1.369,4.654,3.047,6.912,3.047h.015a11.47,11.47,0,0,0,8.543-3.125v1.226Z" transform="translate(-185.651 -277.939)" fill="#0055b7"/>
        </g>
      </g>
      <g id="Group_61" data-name="Group 61" transform="translate(33.329 52.195)">
        <g id="Group_60" data-name="Group 60">
          <path id="Path_11" data-name="Path 11" d="M232.856,351.165a1.262,1.262,0,0,0-2.263-.54l-2.9,3.952a1.262,1.262,0,1,0,2.035,1.494l2.887-3.931a1.261,1.261,0,0,0,.26-.767A1.291,1.291,0,0,0,232.856,351.165Z" transform="translate(-227.446 -350.11)" fill="#0055b7"/>
        </g>
      </g>
      <g id="Group_63" data-name="Group 63" transform="translate(18.313 1.04)">
        <g id="Group_62" data-name="Group 62" transform="translate(0 0)">
          <path id="Path_12" data-name="Path 12" d="M162.854,12.3a8.1,8.1,0,0,0-4.634-6.149,4.34,4.34,0,0,0-.371-2.65,4.953,4.953,0,0,0-3.752-2.44,1.258,1.258,0,0,0-.241-.023H136.912a12.492,12.492,0,0,0-12.478,12.478v6.649a7.617,7.617,0,0,0,1.662,4.756,6.144,6.144,0,0,1,1.285,3.565,1.262,1.262,0,0,0,2.523-.071V19.748a5.553,5.553,0,0,1,4.286-4.328h5.481a6.164,6.164,0,0,0,1.885-.293c1.042-.334,2.7-.949,3.9-1.407a3.66,3.66,0,0,1,2.51-.032l5.868,2.06a5.367,5.367,0,0,1,3.522,4.062v10.4a1.262,1.262,0,0,0,1.168,1.258c.032,0,.064,0,.1,0a1.264,1.264,0,0,0,1.248-1.076A17.84,17.84,0,0,1,162,24.5a5.657,5.657,0,0,0,.865-2.992v-9.05A1.264,1.264,0,0,0,162.854,12.3Zm-2.515,9.209a3.13,3.13,0,0,1-.46,1.621V19.724a1.252,1.252,0,0,0-.007-.136,7.869,7.869,0,0,0-5.177-6.212l-.017-.006L148.8,11.306a6.187,6.187,0,0,0-4.243.054c-1.685.64-2.99,1.111-3.774,1.363a3.643,3.643,0,0,1-1.114.172h-5.583a1.285,1.285,0,0,0-.162.01,8.037,8.037,0,0,0-6.516,6.423,1.263,1.263,0,0,0-.03.275v2.6a5.13,5.13,0,0,1-.42-2.035V13.518a9.964,9.964,0,0,1,9.953-9.953h16.817a2.7,2.7,0,0,1,1.863,1.072,2.447,2.447,0,0,1-.055,1.8,1.262,1.262,0,0,0,.847,1.764,5.414,5.414,0,0,1,3.955,4.355v8.954Z" transform="translate(-124.434 -1.04)" fill="#0055b7"/>
        </g>
      </g>
      <g id="Group_65" data-name="Group 65" transform="translate(21.258 10.958)">
        <g id="Group_64" data-name="Group 64">
          <path id="Path_13" data-name="Path 13" d="M177.12,77.676a7.869,7.869,0,0,0-5.177-6.212l-.017-.006-5.876-2.063a6.191,6.191,0,0,0-4.243.054c-1.685.64-2.99,1.111-3.774,1.363a3.643,3.643,0,0,1-1.114.172h-5.583a1.285,1.285,0,0,0-.162.01,8.037,8.037,0,0,0-6.516,6.423,1.263,1.263,0,0,0-.03.275V88.544c0,.009,0,.019,0,.028.008.377.275,9.28,6.426,13.351l.032.022.08.056c.351.237.7.494,1.047.764,1.792,1.407,5.169,3.744,7.833,3.744h.015a6.992,6.992,0,0,0,.753.037,11.93,11.93,0,0,0,7.958-3.312,17.606,17.606,0,0,1,1.81-1.423l.094-.066.093-.065c2.052-1.378,5.606-4.934,6.352-13.266,0-.037.005-.075.005-.113V77.812A1.339,1.339,0,0,0,177.12,77.676ZM174.6,88.244c-.688,7.52-3.892,10.435-5.24,11.34l-.142.1-.07.049a20.117,20.117,0,0,0-2.071,1.629c-3.385,3.06-6.6,2.659-6.76,2.636a1.269,1.269,0,0,0-.222-.014c-1.343.034-3.764-1.192-6.325-3.2-.392-.308-.793-.6-1.194-.871l-.031-.022c-.03-.022-.061-.043-.1-.067-4.964-3.286-5.289-10.974-5.3-11.295V77.836a5.552,5.552,0,0,1,4.284-4.328h5.483a6.164,6.164,0,0,0,1.885-.293c1.042-.334,2.7-.949,3.9-1.407a3.66,3.66,0,0,1,2.51-.031l5.868,2.06A5.367,5.367,0,0,1,174.6,77.9V88.244Z" transform="translate(-144.628 -69.046)" fill="#0055b7"/>
        </g>
      </g>
      <g id="Group_67" data-name="Group 67" transform="translate(33.206 52.196)">
        <g id="Group_66" data-name="Group 66">
          <path id="Path_14" data-name="Path 14" d="M232.021,350.811a1.262,1.262,0,0,0-2.147-.183l-3.024,4.119a1.262,1.262,0,0,0,2.034,1.5l3.024-4.1a1.307,1.307,0,0,0,.246-.764A1.265,1.265,0,0,0,232.021,350.811Z" transform="translate(-226.606 -350.113)" fill="#0055b7"/>
        </g>
      </g>
      <g id="Group_69" data-name="Group 69" transform="translate(36.247 72.912)">
        <g id="Group_68" data-name="Group 68">
          <path id="Path_15" data-name="Path 15" d="M249.869,491.992a1.262,1.262,0,0,0-1.764-.059l-.289.264a1.262,1.262,0,0,0-.25,1.547l.009.016a1.262,1.262,0,0,0,2,.277l.28-.28A1.262,1.262,0,0,0,249.869,491.992Z" transform="translate(-247.406 -491.602)" fill="#0055b7"/>
        </g>
      </g>
      <g id="Group_71" data-name="Group 71" transform="translate(35.939 72.912)">
        <g id="Group_70" data-name="Group 70">
          <path id="Path_16" data-name="Path 16" d="M247.7,492.2l-.289-.264a1.262,1.262,0,0,0-1.745,1.824l.28.28a1.262,1.262,0,0,0,2-.286l.009-.016A1.263,1.263,0,0,0,247.7,492.2Z" transform="translate(-245.301 -491.603)" fill="#0055b7"/>
        </g>
      </g>
      <g id="Group_73" data-name="Group 73" transform="translate(36.224 73.185)">
        <g id="Group_72" data-name="Group 72">
          <path id="Path_17" data-name="Path 17" d="M249.392,493.814h0a1.263,1.263,0,0,0-1.723,0l0,0a1.263,1.263,0,0,0-.039,1.828l.013.013a1.263,1.263,0,0,0,1.783,0l.013-.013a1.263,1.263,0,0,0-.042-1.826Z" transform="translate(-247.252 -493.472)" fill="#0055b7"/>
        </g>
      </g>
      <g id="Group_75" data-name="Group 75" transform="translate(36.262 52.162)">
        <g id="Group_74" data-name="Group 74">
          <path id="Path_18" data-name="Path 18" d="M249.159,350.04a1.262,1.262,0,1,0,.881,1.2v0A1.261,1.261,0,0,0,249.159,350.04Z" transform="translate(-247.512 -349.981)" fill="#0055b7"/>
        </g>
      </g>
      <g id="Group_77" data-name="Group 77" transform="translate(36.237 52.16)">
        <g id="Group_76" data-name="Group 76">
          <path id="Path_19" data-name="Path 19" d="M249.631,350.487l-.011-.015a1.262,1.262,0,0,0-2.278.75v.022a1.266,1.266,0,0,0,1.265,1.257,1.277,1.277,0,0,0,.7-.212,1.262,1.262,0,0,0,.319-1.8Z" transform="translate(-247.343 -349.961)" fill="#0055b7"/>
        </g>
      </g>
      <g id="Group_79" data-name="Group 79" transform="translate(36.277 46.196)">
        <g id="Group_78" data-name="Group 78">
          <path id="Path_20" data-name="Path 20" d="M263.624,311.438a1.261,1.261,0,0,0-.755-.741l-4.84-1.735a1.233,1.233,0,0,0-.12-.036,1.261,1.261,0,0,0-1.008.175l-8.969,5.993-.007,0,.7,1.047-.72-1.036a1.263,1.263,0,0,0-.321,1.8l6.566,8.943a1.262,1.262,0,0,0,1.017.515l.083,0a1.262,1.262,0,0,0,1.024-.651l7.271-13.22A1.262,1.262,0,0,0,263.624,311.438Zm-8.6,11.325-4.615-6.286,7.371-4.925,2.849,1.021Z" transform="translate(-247.344 -308.887)" fill="#0055b7"/>
        </g>
      </g>
      <g id="Group_81" data-name="Group 81" transform="translate(22.361 46.197)">
        <g id="Group_80" data-name="Group 80">
          <path id="Path_21" data-name="Path 21" d="M168.8,315.945a1.262,1.262,0,0,0-.54-.831l-9-6.013a1.263,1.263,0,0,0-.976-.183,1.247,1.247,0,0,0-.152.044L153.3,310.7a1.262,1.262,0,0,0-.68,1.8l7.271,13.22a1.263,1.263,0,0,0,1.024.651l.082,0a1.263,1.263,0,0,0,1.018-.516l3.509-4.778.008-.012,3.05-4.154A1.263,1.263,0,0,0,168.8,315.945Zm-5.319,3.635-.009.012-2.329,3.173-5.6-10.19,2.849-1.021,7.371,4.925Z" transform="translate(-152.461 -308.889)" fill="#0055b7"/>
        </g>
      </g>
      <g id="Group_83" data-name="Group 83" transform="translate(36.421 48.002)">
        <g id="Group_82" data-name="Group 82">
          <path id="Path_22" data-name="Path 22" d="M285.982,343.154l-1.629-9.834a8.705,8.705,0,0,0-5.621-6.757l-15.755-5.7a1.262,1.262,0,0,0-1.559,1.751l3.289,6.6-3.228.05a1.262,1.262,0,0,0-1.1,1.848l1.324,2.528L248.156,346.03l-.041.039-.28.28a1.262,1.262,0,0,0-.215,1.5l.01.018a1.263,1.263,0,0,0,1.108.657H281.43a4.613,4.613,0,0,0,4.551-5.367Zm-2.958,2.1a2.086,2.086,0,0,1-1.593.738h-29.5l12.193-11.154a1.262,1.262,0,0,0,.266-1.517l-.824-1.573,3.183-.049a1.263,1.263,0,0,0,1.11-1.826l-2.776-5.567,12.788,4.626a6.178,6.178,0,0,1,3.989,4.8l1.629,9.834h0A2.085,2.085,0,0,1,283.024,345.258Z" transform="translate(-247.466 -320.787)" fill="#0055b7"/>
        </g>
      </g>
      <g id="Group_85" data-name="Group 85" transform="translate(36.238 73.197)">
        <g id="Group_84" data-name="Group 84">
          <path id="Path_23" data-name="Path 23" d="M249.481,493.9l-.015-.013a1.263,1.263,0,0,0-1.742.046l-.013.013a1.262,1.262,0,0,0,.9,2.153h.028a1.263,1.263,0,0,0,.847-2.2Z" transform="translate(-247.343 -493.556)" fill="#0055b7"/>
        </g>
      </g>
      <g id="Group_87" data-name="Group 87" transform="translate(36.219 73.176)">
        <g id="Group_86" data-name="Group 86">
          <path id="Path_24" data-name="Path 24" d="M249.336,493.737a1.263,1.263,0,0,0-1.951.331l-.009.016a1.263,1.263,0,0,0,.2,1.485l0,0a1.262,1.262,0,0,0,1.758.055l.013-.012a1.262,1.262,0,0,0,.279-.368A1.276,1.276,0,0,0,249.336,493.737Z" transform="translate(-247.22 -493.413)" fill="#0055b7"/>
        </g>
      </g>
      <g id="Group_89" data-name="Group 89" transform="translate(0 48.001)">
        <g id="Group_88" data-name="Group 88">
          <path id="Path_25" data-name="Path 25" d="M38.224,346.363l-.005-.005-.01-.01-.28-.28-.04-.039L24.339,333.635l1.324-2.528a1.262,1.262,0,0,0-1.1-1.848l-3.228-.05,3.289-6.6a1.262,1.262,0,0,0-1.559-1.751l-15.755,5.7a8.705,8.705,0,0,0-5.621,6.757L.062,343.153a4.614,4.614,0,0,0,4.552,5.367h32.72a1.262,1.262,0,0,0,.89-2.158ZM4.614,346a2.089,2.089,0,0,1-2.061-2.43l1.629-9.834a6.178,6.178,0,0,1,3.989-4.8l12.788-4.626-2.776,5.567a1.262,1.262,0,0,0,1.11,1.826l3.183.049-.824,1.573a1.262,1.262,0,0,0,.266,1.517L34.112,346Z" transform="translate(0 -320.786)" fill="#0055b7"/>
        </g>
      </g>
      <g id="Group_91" data-name="Group 91" transform="translate(33.18 52.284)">
        <g id="Group_90" data-name="Group 90">
          <path id="Path_26" data-name="Path 26" d="M234.993,355.9a1.262,1.262,0,0,0-.207-1.054l-3.072-4.184a1.263,1.263,0,0,0-2.074.069l-3.016,4.092a1.263,1.263,0,0,0-.021,1.472l1.284,1.844-1.368,8.624a1.263,1.263,0,0,0,.141.806l2.931,5.329a1.262,1.262,0,0,0,2.212,0l2.953-5.368a1.264,1.264,0,0,0,.156-.608h0a1.286,1.286,0,0,0-.016-.2l-1.362-8.584,1.271-1.824A1.277,1.277,0,0,0,234.993,355.9Zm-4.3,13.772-1.617-2.939,1.38-8.7a1.262,1.262,0,0,0-.211-.919l-1.058-1.519,1.509-2.047,1.517,2.066-1.045,1.5a1.262,1.262,0,0,0-.211.919l1.374,8.659Z" transform="translate(-226.376 -350.155)" fill="#0055b7"/>
        </g>
      </g>
    </g>
  </g>
</svg>
