<svg xmlns="http://www.w3.org/2000/svg" width="71" height="74.7" viewBox="0 0 71 74.7">
  <g id="Group_160" data-name="Group 160" transform="translate(-1219 -468)">
    <g id="Group_125" data-name="Group 125" transform="translate(0 145)">
      <path id="Path_49" data-name="Path 49" d="M-671.75,372.5v23.875h34V372.5l-6.625-1.375-10.5,14.375L-665.5,371.125Z" transform="translate(1904)" fill="#ec6393" opacity="0"/>
      <g id="worker" transform="translate(1185.666 323)">
        <g id="Group_94" data-name="Group 94" transform="translate(33.334)">
          <g id="Group_93" data-name="Group 93" transform="translate(0)">
            <path id="Path_28" data-name="Path 28" d="M81.311,48.116l-9.422-2.094V43.045a14.437,14.437,0,0,0,6.024-11.719V24.9A5.513,5.513,0,0,0,78.6,24.1h5.338V21.687h-2.41v-2.41a18.135,18.135,0,0,0-14.616-17.7A2.406,2.406,0,0,0,64.66,0H62.25A2.4,2.4,0,0,0,60,1.577a18.135,18.135,0,0,0-14.616,17.7v2.41h-2.41V24.1h5.339A5.589,5.589,0,0,0,49,24.9v6.422a14.437,14.437,0,0,0,6.024,11.719v2.977L45.6,48.116A15.569,15.569,0,0,0,33.334,63.406V74.7H93.576V63.406A15.569,15.569,0,0,0,81.311,48.116ZM45.382,72.29H35.743V63.406a13.16,13.16,0,0,1,9.639-12.74Zm27.09-23.67-4.5,6-3.286-3.286,6.154-3.077Zm-9.017-2.836a14.357,14.357,0,0,0,6.024-1.331v1.792l-6.024,3.012L57.43,46.244V44.452A14.358,14.358,0,0,0,63.455,45.784Zm-3.485-2.928a1.2,1.2,0,0,1,1.076-.687h4.819a1.2,1.2,0,0,1,1.076.687,11.984,11.984,0,0,1-6.971,0Zm-9.9-20.5-.332-.666H47.792v-2.41A15.731,15.731,0,0,1,59.84,4.057V9.639h2.41V2.41h2.41V9.639h2.41V4.057A15.731,15.731,0,0,1,79.118,19.277v2.41H77.168l-.332.666A3.14,3.14,0,0,1,74.014,24.1H52.9A3.135,3.135,0,0,1,50.074,22.353Zm1.332,8.972V26.3a5.557,5.557,0,0,0,1.489.207H74.013A5.6,5.6,0,0,0,75.5,26.3v5.027a12.055,12.055,0,0,1-6.33,10.6,3.615,3.615,0,0,0-3.307-2.167H61.045a3.615,3.615,0,0,0-3.307,2.167A12.054,12.054,0,0,1,51.406,31.326Zm4.663,16.932,6.154,3.077L58.938,54.62l-4.5-6ZM62.25,72.29H47.792V69.88H62.25Zm0-4.819H47.792V50.1l4.064-.9L62.25,63.053ZM60.4,56.567l3.057-3.055,3.057,3.057-3.057,4.075Zm4.261,6.486L75.054,49.193l4.064.9V67.471H64.659ZM79.118,72.29H64.66V69.88H79.118Zm12.048,0H81.527V50.666a13.161,13.161,0,0,1,9.639,12.74Z" transform="translate(-33.334)" fill="#0055b7"/>
            <rect id="Rectangle_353" data-name="Rectangle 353" width="24" height="2.4" transform="translate(18.121 19.28)" fill="#0055b7"/>
          </g>
        </g>
      </g>
    </g>
    <g id="heart-simple-shape-silhouette" transform="translate(1270 467.239)">
      <path id="Path_53" data-name="Path 53" d="M13.746,29.761A5.254,5.254,0,0,1,19,35.014c0,4.795-9.5,11.163-9.5,11.163S0,40.039,0,35.014c0-3.612,2.352-5.253,5.253-5.253A5.243,5.243,0,0,1,9.5,31.93,5.244,5.244,0,0,1,13.746,29.761Z" fill="none" stroke="#0055b7" stroke-width="2"/>
    </g>
  </g>
</svg>
