<svg xmlns="http://www.w3.org/2000/svg" width="63.026" height="74.7" viewBox="0 0 63.026 74.7">
  <g id="Group_124" data-name="Group 124" transform="translate(-630 -322.667)">
    <g id="Group_123" data-name="Group 123" opacity="0">
      <circle id="Ellipse_5" data-name="Ellipse 5" cx="2" cy="2" r="2" transform="translate(651 372)" fill="#ec6393"/>
      <circle id="Ellipse_6" data-name="Ellipse 6" cx="2" cy="2" r="2" transform="translate(660 376)" fill="#ec6393"/>
      <circle id="Ellipse_7" data-name="Ellipse 7" cx="2" cy="2" r="2" transform="translate(668 372)" fill="#ec6393"/>
    </g>
    <path id="elegant-lady" d="M94.826,50.279a14.428,14.428,0,0,0,4.408-2.6,1.177,1.177,0,0,0,.381-1.18,1.072,1.072,0,0,0-.834-.79c-.356-.188-3.92-2.437-3.92-16.607V23.343a23.343,23.343,0,1,0-46.686,0,1.167,1.167,0,0,0,.036.285v5.478c0,14.17-3.564,16.419-3.92,16.607a1.072,1.072,0,0,0-.834.79,1.177,1.177,0,0,0,.381,1.18,14.412,14.412,0,0,0,4.388,2.589A14.026,14.026,0,0,0,40,63.026v7A4.674,4.674,0,0,0,44.674,74.7h19.66l.037,0,.048,0h14.2l.048,0,.037,0h19.66a4.674,4.674,0,0,0,4.669-4.669v-7A14.024,14.024,0,0,0,94.826,50.279ZM72.686,72.364V70.029a1.167,1.167,0,1,0-2.334,0v2.334H64.928C61.021,67.445,56.435,60,55.467,51.331a13.83,13.83,0,0,0,4.491-.852,3.5,3.5,0,0,0,5.963,3.249l2.1.9c0,.075-.008.151-.008.227a3.5,3.5,0,0,0,7,0c0-.076,0-.152-.008-.227l2.1-.9a3.5,3.5,0,0,0,5.955-3.275,13.639,13.639,0,0,0,4.5.879C86.6,60,82.016,67.445,78.109,72.363H72.686ZM53.125,51.392c.894,8.476,5.008,15.8,8.859,20.972H49.57a140.137,140.137,0,0,0,1.987-20.747A11.654,11.654,0,0,1,53.125,51.392Zm18.394-7.04A15.353,15.353,0,0,0,78.6,42.623a10.016,10.016,0,0,0,1.257,5.235c-.055,0-.11,0-.165,0a3.506,3.506,0,0,0-3.5,3.5c0,.076,0,.152.008.227l-2.1.9a3.5,3.5,0,0,0-5.145,0l-2.1-.9c0-.075.008-.151.008-.227a3.506,3.506,0,0,0-3.5-3.5l-.1,0a9.974,9.974,0,0,0,1.257-5.2A15.349,15.349,0,0,0,71.518,44.352Zm9.337,7a1.167,1.167,0,1,1-1.167-1.167A1.168,1.168,0,0,1,80.856,51.355Zm-8.17,3.5a1.167,1.167,0,1,1-1.167-1.167A1.168,1.168,0,0,1,72.686,54.856Zm-9.337-4.669a1.167,1.167,0,1,1-1.167,1.167A1.169,1.169,0,0,1,63.348,50.188Zm26.564,1.2a11.629,11.629,0,0,1,1.568.225,140.133,140.133,0,0,0,1.987,20.747H81.053C84.9,67.193,89.017,59.868,89.912,51.392ZM48.053,44.644c1.654-3.322,2.493-8.55,2.493-15.538V23.343a1.173,1.173,0,0,0-.033-.272,21.008,21.008,0,0,1,42.014.272v5.763c0,6.989.839,12.217,2.493,15.538a9.02,9.02,0,0,0,1.469,2.184,13.9,13.9,0,0,1-7.463,2.192c-.021,0-.042,0-.063,0l-.032,0a1.165,1.165,0,0,0-.207,0H88.7c-7.781,0-7.781-3.606-7.781-7.781,0-.028,0-.055,0-.083a17.894,17.894,0,0,0,6.944-14.315,17.908,17.908,0,0,0-6.2-13.73,1.245,1.245,0,0,0-1.446-.084,49.365,49.365,0,0,1-27.369,7.978,1.167,1.167,0,1,0,0,2.334,51.8,51.8,0,0,0,27.924-7.892,15.651,15.651,0,0,1,4.757,11.393c0,8.366-6.283,15.173-14.006,15.173S57.512,35.211,57.512,26.845a1.167,1.167,0,0,0-2.334,0,17.887,17.887,0,0,0,7,14.36c0,.012,0,.023,0,.035,0,4.175,0,7.781-7.781,7.781-.027,0-.054,0-.081,0a1.159,1.159,0,0,0-.213,0l-.021,0-.037,0a13.9,13.9,0,0,1-7.463-2.192A9.027,9.027,0,0,0,48.053,44.644ZM42.34,70.029v-7a11.685,11.685,0,0,1,6.871-10.635A139.454,139.454,0,0,1,47.2,72.364H44.674A2.337,2.337,0,0,1,42.34,70.029Zm58.358,0a2.337,2.337,0,0,1-2.334,2.334H95.836a139.338,139.338,0,0,1-2.01-19.972A11.685,11.685,0,0,1,100.7,63.026v7Z" transform="translate(589.995 322.667)" fill="#0055b7"/>
  </g>
</svg>
