<svg xmlns="http://www.w3.org/2000/svg" width="19.625" height="19.625" viewBox="0 0 19.625 19.625">
  <g id="Icon_ionic-ios-help-circle-outline" data-name="Icon ionic-ios-help-circle-outline" transform="translate(-3.375 -3.375)">
    <path id="Path_5" data-name="Path 5" d="M13.188,4.7A8.488,8.488,0,1,1,7.182,7.182,8.435,8.435,0,0,1,13.188,4.7m0-1.321A9.813,9.813,0,1,0,23,13.188a9.811,9.811,0,0,0-9.812-9.813Z" fill="#606060"/>
    <path id="Path_6" data-name="Path 6" d="M16.552,11.25c1.769,0,2.986.981,2.986,2.392a2.307,2.307,0,0,1-1.326,2.095c-.821.476-1.1.826-1.1,1.429v.373H15.477l-.014-.406a1.964,1.964,0,0,1,1.113-2.076c.8-.476,1.132-.778,1.132-1.363a1.145,1.145,0,0,0-1.269-1.014,1.193,1.193,0,0,0-1.264,1.161H13.5C13.533,12.321,14.656,11.25,16.552,11.25Zm-1.241,8.086a1.013,1.013,0,1,1,1.01.972A.988.988,0,0,1,15.312,19.336Z" transform="translate(-3.332 -2.591)" fill="#606060"/>
  </g>
</svg>
