<svg xmlns="http://www.w3.org/2000/svg" viewBox="0 0 72.44 74.43"><defs><style>.cls-1{fill:none;stroke:#0055b7;stroke-width:2px;}.cls-2{fill:#0055b7;}</style></defs><g id="Layer_2" data-name="Layer 2"><g id="Layer_1-2" data-name="Layer 1"><g id="Group_160" data-name="Group 160"><g id="heart-simple-shape-silhouette"><path id="Path_53" data-name="Path 53" class="cls-1" d="M66.18,29a5.25,5.25,0,0,1,5.26,5.26c0,4.79-9.5,11.16-9.5,11.16s-9.5-6.14-9.5-11.16c0-3.62,2.35-5.26,5.25-5.26a5.26,5.26,0,0,1,4.25,2.17A5.23,5.23,0,0,1,66.18,29Z"/></g><g id="doctor"><g id="Group_183" data-name="Group 183"><g id="Group_182" data-name="Group 182"><path class="cls-2" d="M52.4,51.93l-7.86-2.41a2.5,2.5,0,0,0-1.38-2.39L38.3,44.7V41.24a16.27,16.27,0,0,0,6.83-11.09h.65a4.12,4.12,0,0,0,4.15-3.59,4,4,0,0,0-2.31-4V10.42a8.08,8.08,0,0,0-8.08-8.08h-.19a13.75,13.75,0,0,0-8-2.33A27.87,27.87,0,0,0,17.75,3.07,48.33,48.33,0,0,1,11,5.69,1.08,1.08,0,0,0,10.24,7a.49.49,0,0,0,0,.11,10,10,0,0,0,1.78,2.59c-.55.66-1.57,2.37-1.57,5.73v7.09a4,4,0,0,0,1.67,7.59H13a16.26,16.26,0,0,0,6.84,11.09V44.7L15,47.13a2.51,2.51,0,0,0-1.39,2.39L5.71,51.93A8,8,0,0,0,0,59.66V73.34a1.09,1.09,0,0,0,1.09,1.09H57a1.09,1.09,0,0,0,1.09-1.09V59.66A8,8,0,0,0,52.4,51.93ZM18.65,5.06A25.67,25.67,0,0,1,31.31,2.19c4,0,7.62,1.68,8.36,3.92a1.09,1.09,0,0,0,2.07-.69c-.07-.19-.14-.38-.22-.56a5.9,5.9,0,0,1,3.92,5.56V22.15H44.2A1.25,1.25,0,0,1,43,20.91V19.74a13.83,13.83,0,0,0-3.82-8.92,1.07,1.07,0,0,0-1.1-.27c-6.05,1.91-14.58,3.52-20.86.34a11.72,11.72,0,0,1-4.25-3.53A55.51,55.51,0,0,0,18.65,5.06ZM15,27.9a1.09,1.09,0,1,0-2.18,0V28h-.66a1.81,1.81,0,0,1-1.82-1.82,1.21,1.21,0,0,1,0-.19,1.92,1.92,0,0,1,2-1.63h1.59a3.43,3.43,0,0,0,3.42-3.42V16.79a1.09,1.09,0,1,0-2.18,0v4.12a1.25,1.25,0,0,1-1.24,1.24H12.67V15.47a7.25,7.25,0,0,1,1-4.24A14.85,14.85,0,0,0,16,12.75a20.39,20.39,0,0,0,8.74,2.12,41.45,41.45,0,0,0,13.26-2,11.47,11.47,0,0,1,2.75,6.9v1.17a3.42,3.42,0,0,0,3.42,3.42H46a1.82,1.82,0,0,1,1.82,1.82,1.15,1.15,0,0,1,0,.19,1.94,1.94,0,0,1-2,1.64h-.49v-.07a1.09,1.09,0,1,0-2.18,0A14.06,14.06,0,0,1,15,27.9ZM36.12,42.51v2.71L34,52.36a10.6,10.6,0,0,1-10,0L22,45.22V42.51A16.22,16.22,0,0,0,36.12,42.51ZM5.83,66.35v5.9H2.18V59.66A5.86,5.86,0,0,1,6.35,54l8.17-2.52L16,53.43l-1.64,1.64A3.41,3.41,0,0,0,13.68,59l3.12,6.25h-3V64a1.09,1.09,0,0,0-2.18,0v1.24H6.92A1.08,1.08,0,0,0,5.83,66.35Zm11.65,5.9H8V67.44h3.64v.07a1.09,1.09,0,0,0,2.18,0v-.07h3.65Zm2.18,0V71l.64,1.29ZM24.61,62l3,10.26H22.74L15.64,58a1.23,1.23,0,0,1,.23-1.43l2.31-2.31a1.09,1.09,0,0,0,.1-1.42l-2.47-3.3a.34.34,0,0,1,.07-.47l0,0,4.29-2.14,3,10.39a1.09,1.09,0,0,0,2.09-.61l-.47-1.64a12.8,12.8,0,0,0,8.38,0L29.06,69.45,26.7,61.38a1.09,1.09,0,1,0-2.09.61Zm5.9,10.26,7.38-25.32,4.3,2.15a.33.33,0,0,1,.14.45.05.05,0,0,1,0,0l-2.47,3.29a1.11,1.11,0,0,0,.1,1.43l2.31,2.31A1.23,1.23,0,0,1,42.47,58l-7.1,14.21Zm25.41,0H37.81L44.42,59a3.42,3.42,0,0,0-.64-4l-1.64-1.64,1.45-1.93L51.76,54a5.86,5.86,0,0,1,4.16,5.64Z"/></g></g><g id="Group_185" data-name="Group 185"><g id="Group_184" data-name="Group 184"><path id="Path_75" data-name="Path 75" class="cls-2" d="M51.19,65.84H49.37V64a1.09,1.09,0,1,0-2.18,0v1.82H45.36a1.09,1.09,0,0,0,0,2.18h1.83v1.82a1.09,1.09,0,0,0,2.18,0V68h1.82a1.09,1.09,0,0,0,0-2.18Z"/></g></g></g></g></g></g></svg>