<svg xmlns="http://www.w3.org/2000/svg" width="130.666" height="36.509" viewBox="0 0 130.666 36.509">
  <g id="svgexport-1" transform="translate(-0.268 -0.263)">
    <path id="Path_1" data-name="Path 1" d="M130.934,30.806a1.51,1.51,0,1,1-1.506-1.479A1.481,1.481,0,0,1,130.934,30.806Zm-2.645,0a1.143,1.143,0,0,0,1.147,1.181,1.128,1.128,0,0,0,1.12-1.172,1.135,1.135,0,1,0-2.267-.009Zm.907.775h-.341V30.1a2.952,2.952,0,0,1,.564-.045.911.911,0,0,1,.511.108.409.409,0,0,1,.144.324.378.378,0,0,1-.306.344v.018a.433.433,0,0,1,.269.36,1.134,1.134,0,0,0,.108.369h-.367a1.248,1.248,0,0,1-.116-.36c-.027-.163-.117-.235-.3-.235H129.2v.6Zm.009-.838h.161c.189,0,.341-.064.341-.217,0-.135-.1-.225-.314-.225a.79.79,0,0,0-.188.018ZM56.927,25.936H54.653a.312.312,0,0,1-.31-.313v-.337a.312.312,0,0,1,.31-.313h2.275a.311.311,0,0,1,.31.313v.337a.311.311,0,0,1-.31.313m21.4,0H76.05a.311.311,0,0,1-.311-.313v-.337a.311.311,0,0,1,.311-.313h2.274a.312.312,0,0,1,.311.313v.337a.311.311,0,0,1-.311.313m30.632,6.293a7.388,7.388,0,0,1-1.568-.152,3.709,3.709,0,0,1-1.2-.464,2.288,2.288,0,0,1-.765-.769,2.069,2.069,0,0,1-.269-1.069,1.766,1.766,0,0,1,.151-.775,1.438,1.438,0,0,1,.371-.492,1.366,1.366,0,0,1,.472-.256,1.715,1.715,0,0,1,.455-.072,5.045,5.045,0,0,0,.123,1.142,2.54,2.54,0,0,0,.416.933,2.031,2.031,0,0,0,.771.635,2.665,2.665,0,0,0,1.174.233,3.541,3.541,0,0,0,1.09-.154,2.254,2.254,0,0,0,.791-.43,1.812,1.812,0,0,0,.49-.667,2.138,2.138,0,0,0,.168-.854,1.931,1.931,0,0,0-.129-.74,1.562,1.562,0,0,0-.449-.583,4.726,4.726,0,0,0-.871-.555q-.682-.341-1.382-.644-.79-.346-1.546-.763a4.857,4.857,0,0,1-1.084-.8,2.808,2.808,0,0,1-.641-.978,3.6,3.6,0,0,1-.213-1.307,3.081,3.081,0,0,1,.308-1.4,2.817,2.817,0,0,1,.883-1.022,4.212,4.212,0,0,1,1.371-.628,6.831,6.831,0,0,1,1.776-.214,5.627,5.627,0,0,1,1.449.168,3.533,3.533,0,0,1,1.058.46,1.957,1.957,0,0,1,.64.677,1.687,1.687,0,0,1,.214.82,1.277,1.277,0,0,1-.433,1.012,1.806,1.806,0,0,1-1.231.38,2.994,2.994,0,0,0-.477-1.81,1.742,1.742,0,0,0-1.5-.644,3.229,3.229,0,0,0-1,.135,1.778,1.778,0,0,0-.678.384,1.481,1.481,0,0,0-.388.589,2.145,2.145,0,0,0-.125.748,1.728,1.728,0,0,0,.157.763,1.747,1.747,0,0,0,.5.594,4.67,4.67,0,0,0,.887.526q.545.253,1.31.571a14.629,14.629,0,0,1,1.563.757,4.8,4.8,0,0,1,1.072.815,2.818,2.818,0,0,1,.623,1,3.686,3.686,0,0,1,.2,1.278,3.631,3.631,0,0,1-.326,1.585,3.126,3.126,0,0,1-.921,1.136,4.073,4.073,0,0,1-1.433.684,7.114,7.114,0,0,1-1.86.226M90.411,15.846l2.839,9.9q.319,1.137.57,2.18.221.914.4,1.836.381-1.892.909-3.75l2.05-7.051c.022-.089.049-.19.077-.3s.055-.223.079-.335l.061-.311a1.363,1.363,0,0,0,.027-.247.964.964,0,0,0-.372-.852,1.95,1.95,0,0,0-1.124-.263h-.522v-.96h4.884v.96a2.741,2.741,0,0,0-.354.067,1.013,1.013,0,0,0-.449.257,1.776,1.776,0,0,0-.365.536,6.07,6.07,0,0,0-.334.914L94.9,32H92.862l-3.7-12.8L85.688,32H83.594L79.438,17.855a2.825,2.825,0,0,0-.25-.593,1.188,1.188,0,0,0-.327-.368,1.262,1.262,0,0,0-.443-.191,2.853,2.853,0,0,0-.589-.055h-.3v-.96h6.253v.96h-.522a1.669,1.669,0,0,0-1.027.263.987.987,0,0,0-.337.83,1.438,1.438,0,0,0,.055.391c.037.135.079.287.122.459L84.159,25.9q.288,1.038.542,2.036t.444,1.824q.166-.891.394-1.947t.526-2.158l2.705-9.809h1.641ZM47.543,32.229a5.681,5.681,0,0,1-2.242-.424,4.453,4.453,0,0,1-1.679-1.238,5.6,5.6,0,0,1-1.051-2,9.083,9.083,0,0,1-.366-2.686A7.651,7.651,0,0,1,43.532,21a4.574,4.574,0,0,1,3.775-1.64,5.417,5.417,0,0,1,2,.349,3.916,3.916,0,0,1,1.507,1.046,4.77,4.77,0,0,1,.947,1.731,7.857,7.857,0,0,1,.332,2.4v1.063H44.429a9.781,9.781,0,0,0,.253,2.178,4.293,4.293,0,0,0,.664,1.5,2.611,2.611,0,0,0,1.062.865,3.547,3.547,0,0,0,1.449.278,4.3,4.3,0,0,0,1.107-.135,4.173,4.173,0,0,0,.928-.361,3.88,3.88,0,0,0,.736-.516,2.988,2.988,0,0,0,.522-.606.72.72,0,0,1,.3.282.914.914,0,0,1,.141.51,1.459,1.459,0,0,1-.247.752,2.5,2.5,0,0,1-.753.741A4.661,4.661,0,0,1,49.325,32a6.253,6.253,0,0,1-1.782.226M47.262,20.6a2.225,2.225,0,0,0-1.972,1.047,6.289,6.289,0,0,0-.816,3.059h5.294a9.571,9.571,0,0,0-.136-1.673,4.375,4.375,0,0,0-.426-1.3,2.174,2.174,0,0,0-.77-.836,2.2,2.2,0,0,0-1.175-.294m78.078,9.09v-5.8a6.9,6.9,0,0,0-.269-2.046,3.592,3.592,0,0,0-.787-1.408,3.167,3.167,0,0,0-1.277-.815,5.226,5.226,0,0,0-1.736-.265,3.507,3.507,0,0,0-3.383,2.1h-.113c.016-.218.03-.441.045-.667.014-.2.026-.409.035-.639s.011-.451.011-.662V14.4h-3.394v.972c1.077,0,1.208.376,1.224,1.181V29.85c-.015.8-.146,1.181-1.224,1.181V32h4.618V31.03c-1.078,0-1.208-.374-1.224-1.178V24.594a6.576,6.576,0,0,1,.167-1.544,3.487,3.487,0,0,1,.513-1.188,2.3,2.3,0,0,1,.865-.757,2.7,2.7,0,0,1,1.241-.266,2.974,2.974,0,0,1,1.18.209,1.863,1.863,0,0,1,.782.618,2.7,2.7,0,0,1,.432,1,6.056,6.056,0,0,1,.134,1.345v6.227a2.021,2.021,0,0,0,2.212,2.071,1.391,1.391,0,0,0,1.467-.949s-1.521.226-1.521-1.663M18.191,16.438v-.972H14.044L9.324,28.711,4.56,15.466H.268v.972c1.078,0,1.208.376,1.224,1.18V29.849c-.016.805-.146,1.181-1.224,1.181V32H4.121V31.03c-1.077,0-1.208-.376-1.224-1.181V17.241L8.235,32H9.482L14.753,17.2V29.849c-.016.805-.147,1.181-1.225,1.181V32h4.663V31.03c-1.077,0-1.208-.376-1.224-1.181V17.618c.016-.8.146-1.18,1.224-1.18m8.175,13.605c.05.3.423,2.186,1.924,2.186,1.408,0,1.533-.9,1.541-1.15v-.062a1.048,1.048,0,0,1-1.439-.9,4.3,4.3,0,0,1-.055-.763V23.349a5.753,5.753,0,0,0-.264-1.872,2.908,2.908,0,0,0-.791-1.238,3.142,3.142,0,0,0-1.315-.685,7.235,7.235,0,0,0-1.844-.209,9.8,9.8,0,0,0-1.606.125,5.1,5.1,0,0,0-1.321.389,2.433,2.433,0,0,0-.894.686,1.61,1.61,0,0,0-.326,1.018,1.255,1.255,0,0,0,.5,1.132,2.67,2.67,0,0,0,1.456.327,5.885,5.885,0,0,1,.08-1.006,1.991,1.991,0,0,1,.308-.8,1.51,1.51,0,0,1,.64-.524,2.61,2.61,0,0,1,1.073-.187,2.542,2.542,0,0,1,1.129.209,1.521,1.521,0,0,1,.647.588,2.345,2.345,0,0,1,.292.9,9.137,9.137,0,0,1,.068,1.148v1.392l-1.911.068a7.422,7.422,0,0,0-3.943.972,3.089,3.089,0,0,0-1.3,2.737,4.551,4.551,0,0,0,.269,1.646,3.153,3.153,0,0,0,.747,1.153A2.984,2.984,0,0,0,21.162,32a4.433,4.433,0,0,0,1.422.221c3.044,0,3.535-1.893,3.775-2.217l.008.043Zm-.2-2.475a3.991,3.991,0,0,1-.213,1.335,2.842,2.842,0,0,1-.614,1.018,2.693,2.693,0,0,1-.966.645,3.381,3.381,0,0,1-1.264.226,1.748,1.748,0,0,1-1.411-.537,2.466,2.466,0,0,1-.456-1.623,3.758,3.758,0,0,1,.174-1.2A1.994,1.994,0,0,1,22,26.556,2.791,2.791,0,0,1,23.062,26a6.876,6.876,0,0,1,1.635-.243l1.473-.068Z" transform="translate(0 -4.885)" fill="#0055b7" fill-rule="evenodd"/>
    <path id="Path_2" data-name="Path 2" d="M58.465,31.023a2.084,2.084,0,0,1-1.367-.487,6.092,6.092,0,0,1-1.189-1.414l-3.072-4.581,1.62-1.831a10.81,10.81,0,0,1,1.673-1.6,2.632,2.632,0,0,1,1.57-.565v-.974H53.116v.974c1.036,0,1.3.307.671,1.081q-.657.724-1.311,1.452l-2.685,2.951c.012-.321.024-.631.036-.926.015-.315.026-.639.033-.967s.013-.6.013-.808V14.4H48.021v-.013H46.473v.974c1.079,0,1.211.374,1.227,1.179V29.843c-.016.8-.148,1.181-1.227,1.181V32H51.1v-.972c-1.081,0-1.211-.376-1.226-1.181v-2.6l1.509-1.126,2.2,3.383a11.3,11.3,0,0,0,.877,1.215c.793.959,1.182,1.521,2.471,1.521a1.5,1.5,0,0,0,1.6-1.209Zm60.582-1.181V19.575h-3.109l-.281.974c1.081,0,1.21.374,1.226,1.18l0-.014v8.128c-.016.805-.147,1.18-1.228,1.18v.972h4.616v-.972c-1.08,0-1.211-.374-1.226-1.18M91.157,31.26a2.6,2.6,0,0,1-.586-.057,1.175,1.175,0,0,1-.44-.2,1.284,1.284,0,0,1-.332-.38,3.812,3.812,0,0,1-.275-.6L84.306,15.683H82.5L77.386,29.448q-.173.461-.388.905a2.285,2.285,0,0,1-.367.555,1,1,0,0,1-.428.279,2.017,2.017,0,0,1-.574.072h-.441v.974h5.636V31.26h-.531a1.989,1.989,0,0,1-1.154-.271.989.989,0,0,1-.378-.86,2.305,2.305,0,0,1,.057-.459,3.745,3.745,0,0,1,.158-.539l2.884-7.868c.137-.361.256-.692.361-.991s.2-.583.282-.855.16-.539.231-.8.133-.531.187-.809q.191.839.489,1.737t.66,1.931l2.772,7.812c.06.173.106.328.141.464a1.686,1.686,0,0,1,.05.4q0,1.111-1.385,1.11h-.531v.974h6.345V31.26h-.3Z" transform="translate(-15.983 -4.878)" fill="#0055b7" fill-rule="evenodd"/>
    <path id="Path_3" data-name="Path 3" d="M103.2,1.87c-8.409.355-17.759,3.9-17.422,11.977A8.282,8.282,0,0,0,94.479,22a8.053,8.053,0,0,0,7.57-5.451.036.036,0,0,1,.069.016c-.267,1.957-2.2,6.262-8.031,6.51S84.415,18.83,84.2,13.711C83.821,4.7,93.334.709,103.133.295c9.143-.386,17.614,2.732,22.344,6.093a.085.085,0,0,1-.087.144A44.469,44.469,0,0,0,103.2,1.87m23.958,3.576,1.378.791a.279.279,0,0,0,.275,0l1.4-.741a.122.122,0,0,1,.177.133l-.324,1.558a.284.284,0,0,0,.08.264l1.138,1.109a.123.123,0,0,1-.072.21l-1.578.172a.288.288,0,0,0-.226.159l-.7,1.429a.123.123,0,0,1-.222-.005l-.65-1.451a.282.282,0,0,0-.219-.167l-1.571-.227a.123.123,0,0,1-.064-.212L127.157,7.4a.286.286,0,0,0,.09-.262l-.271-1.568a.123.123,0,0,1,.183-.127M80.89,35.138l-.51-1.4q-.042-.109-.079-.22c-.025-.085-.053-.178-.081-.275-.024.1-.05.19-.077.277s-.051.151-.079.226l-.507,1.39H80.89Zm1.375,1.587h-.6a.26.26,0,0,1-.166-.052.3.3,0,0,1-.1-.126l-.313-.856H79.354l-.313.856a.269.269,0,0,1-.254.178h-.608l1.648-4.2h.793l1.645,4.2Zm2.016-.631a1.009,1.009,0,0,0,.4-.076.82.82,0,0,0,.3-.212.941.941,0,0,0,.186-.331,1.347,1.347,0,0,0,.066-.435V32.524h.779V35.04a1.921,1.921,0,0,1-.121.692,1.539,1.539,0,0,1-.891.91,2.1,2.1,0,0,1-1.451,0,1.544,1.544,0,0,1-.891-.91,1.947,1.947,0,0,1-.119-.692V32.524h.778v2.513a1.353,1.353,0,0,0,.066.435.946.946,0,0,0,.187.332.824.824,0,0,0,.3.213,1.01,1.01,0,0,0,.4.076m4.846-2.806a.293.293,0,0,1-.074.09.171.171,0,0,1-.1.026.25.25,0,0,1-.131-.045q-.084-.052-.169-.1a1.4,1.4,0,0,0-.231-.1,1.081,1.081,0,0,0-.594-.006.571.571,0,0,0-.2.108.447.447,0,0,0-.124.167.552.552,0,0,0-.041.214.371.371,0,0,0,.083.247.672.672,0,0,0,.217.169,2.165,2.165,0,0,0,.311.125c.116.037.234.076.356.117a3.5,3.5,0,0,1,.356.146,1.22,1.22,0,0,1,.309.209.951.951,0,0,1,.219.309,1.078,1.078,0,0,1,.083.445,1.452,1.452,0,0,1-.1.532,1.213,1.213,0,0,1-.284.433,1.321,1.321,0,0,1-.457.292,1.7,1.7,0,0,1-.617.1,2.111,2.111,0,0,1-.766-.151,2.008,2.008,0,0,1-.334-.175,1.668,1.668,0,0,1-.279-.225l.23-.375a.238.238,0,0,1,.075-.069.194.194,0,0,1,.1-.026.276.276,0,0,1,.157.059c.055.039.122.083.2.131a1.492,1.492,0,0,0,.271.132,1.03,1.03,0,0,0,.371.059.769.769,0,0,0,.517-.157.571.571,0,0,0,.183-.454.422.422,0,0,0-.084-.271.667.667,0,0,0-.218-.175,1.67,1.67,0,0,0-.31-.121c-.116-.032-.234-.068-.353-.107a3.045,3.045,0,0,1-.353-.139,1.173,1.173,0,0,1-.309-.212.949.949,0,0,1-.219-.328,1.24,1.24,0,0,1-.082-.483,1.157,1.157,0,0,1,.09-.447,1.178,1.178,0,0,1,.266-.385,1.288,1.288,0,0,1,.428-.271,1.563,1.563,0,0,1,.585-.1,1.943,1.943,0,0,1,.683.116,1.515,1.515,0,0,1,.533.325l-.194.37ZM93,33.167H91.737v3.558h-.78V33.167H89.694v-.643H93Zm1.816,1.356a1.179,1.179,0,0,0,.383-.056.711.711,0,0,0,.269-.152.607.607,0,0,0,.158-.23.8.8,0,0,0,.051-.294.6.6,0,0,0-.21-.492,1.01,1.01,0,0,0-.641-.17h-.5v1.393Zm2,2.2h-.7a.31.31,0,0,1-.29-.156l-.88-1.345a.294.294,0,0,0-.108-.107.373.373,0,0,0-.176-.033h-.332v1.641h-.78v-4.2h1.277a2.654,2.654,0,0,1,.731.088,1.38,1.38,0,0,1,.5.249.965.965,0,0,1,.288.381,1.337,1.337,0,0,1,.031.89,1.181,1.181,0,0,1-.469.614,1.449,1.449,0,0,1-.393.182.82.82,0,0,1,.14.1.67.67,0,0,1,.116.14l1.048,1.55Z" transform="translate(-26.892 0)" fill="#0055b7" fill-rule="evenodd"/>
    <path id="Path_4" data-name="Path 4" d="M109.2,52.085l-.51-1.4a4.389,4.389,0,0,1-.159-.5c-.025.1-.051.191-.079.278s-.053.162-.077.226l-.508,1.393H109.2Zm1.375,1.59h-.6a.259.259,0,0,1-.166-.053.3.3,0,0,1-.1-.126l-.313-.857h-1.734l-.313.857a.269.269,0,0,1-.255.178h-.608l1.648-4.208h.794l1.644,4.208Zm2.888-.647v.647h-2.453V49.466h.778v3.561Zm.556.647h.783V49.466h-.783Zm3.931-1.59-.51-1.4a4.4,4.4,0,0,1-.158-.5c-.026.1-.052.191-.079.278s-.051.151-.079.226l-.507,1.393h1.333Zm1.375,1.59h-.6a.259.259,0,0,1-.166-.053.3.3,0,0,1-.1-.126l-.313-.857h-1.734l-.313.857a.269.269,0,0,1-.254.178h-.608l1.648-4.208h.794l1.644,4.208Z" transform="translate(-36.587 -16.949)" fill="#0055b7" fill-rule="evenodd"/>
  </g>
</svg>
